<?xml version="1.0" encoding="UTF-8" standalone="no"?>
<!DOCTYPE svg PUBLIC "-//W3C//DTD SVG 1.1//EN"
 "http://www.w3.org/Graphics/SVG/1.1/DTD/svg11.dtd">
<!-- Generated by graphviz version 2.40.1 (0)
 -->
<!-- Title: %3 Pages: 1 -->
<svg width="1940pt" height="548pt"
 viewBox="0.00 0.00 1940.00 548.00" xmlns="http://www.w3.org/2000/svg" xmlns:xlink="http://www.w3.org/1999/xlink">
<g id="graph0" class="graph" transform="scale(1 1) rotate(0) translate(4 544)">
<title>%3</title>
<polygon fill="#ffffff" stroke="transparent" points="-4,4 -4,-544 1936,-544 1936,4 -4,4"/>
<!-- [root] aws_instance.aws&#45;www1&#45;filescopy&#45;online -->
<g id="node1" class="node">
<title>[root] aws_instance.aws&#45;www1&#45;filescopy&#45;online</title>
<polygon fill="none" stroke="#000000" points="761.5,-324 521.5,-324 521.5,-288 761.5,-288 761.5,-324"/>
<text text-anchor="middle" x="641.5" y="-302.3" font-family="Times,serif" font-size="14.00" fill="#000000">aws_instance.aws&#45;www1&#45;filescopy&#45;online</text>
</g>
<!-- [root] aws_key_pair.byczynm1_mykeypair -->
<g id="node3" class="node">
<title>[root] aws_key_pair.byczynm1_mykeypair</title>
<polygon fill="none" stroke="#000000" points="375.5,-252 163.5,-252 163.5,-216 375.5,-216 375.5,-252"/>
<text text-anchor="middle" x="269.5" y="-230.3" font-family="Times,serif" font-size="14.00" fill="#000000">aws_key_pair.byczynm1_mykeypair</text>
</g>
<!-- [root] aws_instance.aws&#45;www1&#45;filescopy&#45;online&#45;&gt;[root] aws_key_pair.byczynm1_mykeypair -->
<g id="edge1" class="edge">
<title>[root] aws_instance.aws&#45;www1&#45;filescopy&#45;online&#45;&gt;[root] aws_key_pair.byczynm1_mykeypair</title>
<path fill="none" stroke="#000000" d="M548.1089,-287.9243C494.7208,-277.5911 427.6662,-264.6128 372.7197,-253.978"/>
<polygon fill="#000000" stroke="#000000" points="373.0898,-250.4848 362.6069,-252.0207 371.7596,-257.3572 373.0898,-250.4848"/>
</g>
<!-- [root] aws_security_group.allow&#45;ssh -->
<g id="node9" class="node">
<title>[root] aws_security_group.allow&#45;ssh</title>
<polygon fill="none" stroke="#000000" points="776,-252 597,-252 597,-216 776,-216 776,-252"/>
<text text-anchor="middle" x="686.5" y="-230.3" font-family="Times,serif" font-size="14.00" fill="#000000">aws_security_group.allow&#45;ssh</text>
</g>
<!-- [root] aws_instance.aws&#45;www1&#45;filescopy&#45;online&#45;&gt;[root] aws_security_group.allow&#45;ssh -->
<g id="edge2" class="edge">
<title>[root] aws_instance.aws&#45;www1&#45;filescopy&#45;online&#45;&gt;[root] aws_security_group.allow&#45;ssh</title>
<path fill="none" stroke="#000000" d="M652.8554,-287.8314C657.9326,-279.7079 664.0227,-269.9637 669.6176,-261.0118"/>
<polygon fill="#000000" stroke="#000000" points="672.6597,-262.7483 674.9917,-252.4133 666.7237,-259.0383 672.6597,-262.7483"/>
</g>
<!-- [root] aws_subnet.main&#45;public&#45;1 -->
<g id="node13" class="node">
<title>[root] aws_subnet.main&#45;public&#45;1</title>
<polygon fill="none" stroke="#000000" points="992,-252 833,-252 833,-216 992,-216 992,-252"/>
<text text-anchor="middle" x="912.5" y="-230.3" font-family="Times,serif" font-size="14.00" fill="#000000">aws_subnet.main&#45;public&#45;1</text>
</g>
<!-- [root] aws_instance.aws&#45;www1&#45;filescopy&#45;online&#45;&gt;[root] aws_subnet.main&#45;public&#45;1 -->
<g id="edge3" class="edge">
<title>[root] aws_instance.aws&#45;www1&#45;filescopy&#45;online&#45;&gt;[root] aws_subnet.main&#45;public&#45;1</title>
<path fill="none" stroke="#000000" d="M709.5349,-287.9243C747.5487,-277.8247 795.0734,-265.1982 834.5772,-254.7027"/>
<polygon fill="#000000" stroke="#000000" points="835.6711,-258.0336 844.4371,-252.0831 833.8736,-251.2683 835.6711,-258.0336"/>
</g>
<!-- [root] var.AMIS -->
<g id="node19" class="node">
<title>[root] var.AMIS</title>
<polygon fill="none" stroke="#000000" points="573,-252 508,-252 508,-216 579,-216 579,-246 573,-252"/>
<polyline fill="none" stroke="#000000" points="573,-252 573,-246 "/>
<polyline fill="none" stroke="#000000" points="579,-246 573,-246 "/>
<text text-anchor="middle" x="543.5" y="-230.3" font-family="Times,serif" font-size="14.00" fill="#000000">var.AMIS</text>
</g>
<!-- [root] aws_instance.aws&#45;www1&#45;filescopy&#45;online&#45;&gt;[root] var.AMIS -->
<g id="edge4" class="edge">
<title>[root] aws_instance.aws&#45;www1&#45;filescopy&#45;online&#45;&gt;[root] var.AMIS</title>
<path fill="none" stroke="#000000" d="M616.7705,-287.8314C604.5838,-278.8779 589.7177,-267.9558 576.5688,-258.2955"/>
<polygon fill="#000000" stroke="#000000" points="578.3527,-255.263 568.2216,-252.1628 574.2082,-260.9042 578.3527,-255.263"/>
</g>
<!-- [root] aws_internet_gateway.main&#45;gw -->
<g id="node2" class="node">
<title>[root] aws_internet_gateway.main&#45;gw</title>
<polygon fill="none" stroke="#000000" points="1202,-252 1017,-252 1017,-216 1202,-216 1202,-252"/>
<text text-anchor="middle" x="1109.5" y="-230.3" font-family="Times,serif" font-size="14.00" fill="#000000">aws_internet_gateway.main&#45;gw</text>
</g>
<!-- [root] aws_vpc.main -->
<g id="node16" class="node">
<title>[root] aws_vpc.main</title>
<polygon fill="none" stroke="#000000" points="792.5,-180 698.5,-180 698.5,-144 792.5,-144 792.5,-180"/>
<text text-anchor="middle" x="745.5" y="-158.3" font-family="Times,serif" font-size="14.00" fill="#000000">aws_vpc.main</text>
</g>
<!-- [root] aws_internet_gateway.main&#45;gw&#45;&gt;[root] aws_vpc.main -->
<g id="edge5" class="edge">
<title>[root] aws_internet_gateway.main&#45;gw&#45;&gt;[root] aws_vpc.main</title>
<path fill="none" stroke="#000000" d="M1018.1173,-215.9243C950.5711,-202.5635 860.6678,-184.7804 802.9263,-173.3591"/>
<polygon fill="#000000" stroke="#000000" points="803.3745,-169.88 792.8853,-171.3729 802.0161,-176.7469 803.3745,-169.88"/>
</g>
<!-- [root] provider.aws -->
<g id="node18" class="node">
<title>[root] provider.aws</title>
<polygon fill="none" stroke="#000000" points="596.5,-108 519.081,-90 596.5,-72 673.919,-90 596.5,-108"/>
<text text-anchor="middle" x="596.5" y="-86.3" font-family="Times,serif" font-size="14.00" fill="#000000">provider.aws</text>
</g>
<!-- [root] aws_key_pair.byczynm1_mykeypair&#45;&gt;[root] provider.aws -->
<g id="edge6" class="edge">
<title>[root] aws_key_pair.byczynm1_mykeypair&#45;&gt;[root] provider.aws</title>
<path fill="none" stroke="#000000" d="M310.5837,-215.9081C375.0617,-187.5141 498.9721,-132.9481 560.2957,-105.9432"/>
<polygon fill="#000000" stroke="#000000" points="561.8404,-109.0874 569.5817,-101.8539 559.0192,-102.681 561.8404,-109.0874"/>
</g>
<!-- [root] var.PATH_TO_PUBLIC_KEY -->
<g id="node22" class="node">
<title>[root] var.PATH_TO_PUBLIC_KEY</title>
<polygon fill="none" stroke="#000000" points="355.5,-180 177.5,-180 177.5,-144 361.5,-144 361.5,-174 355.5,-180"/>
<polyline fill="none" stroke="#000000" points="355.5,-180 355.5,-174 "/>
<polyline fill="none" stroke="#000000" points="361.5,-174 355.5,-174 "/>
<text text-anchor="middle" x="269.5" y="-158.3" font-family="Times,serif" font-size="14.00" fill="#000000">var.PATH_TO_PUBLIC_KEY</text>
</g>
<!-- [root] aws_key_pair.byczynm1_mykeypair&#45;&gt;[root] var.PATH_TO_PUBLIC_KEY -->
<g id="edge7" class="edge">
<title>[root] aws_key_pair.byczynm1_mykeypair&#45;&gt;[root] var.PATH_TO_PUBLIC_KEY</title>
<path fill="none" stroke="#000000" d="M269.5,-215.8314C269.5,-208.131 269.5,-198.9743 269.5,-190.4166"/>
<polygon fill="#000000" stroke="#000000" points="273.0001,-190.4132 269.5,-180.4133 266.0001,-190.4133 273.0001,-190.4132"/>
</g>
<!-- [root] aws_route_table.main&#45;public -->
<g id="node4" class="node">
<title>[root] aws_route_table.main&#45;public</title>
<polygon fill="none" stroke="#000000" points="1199,-324 1026,-324 1026,-288 1199,-288 1199,-324"/>
<text text-anchor="middle" x="1112.5" y="-302.3" font-family="Times,serif" font-size="14.00" fill="#000000">aws_route_table.main&#45;public</text>
</g>
<!-- [root] aws_route_table.main&#45;public&#45;&gt;[root] aws_internet_gateway.main&#45;gw -->
<g id="edge8" class="edge">
<title>[root] aws_route_table.main&#45;public&#45;&gt;[root] aws_internet_gateway.main&#45;gw</title>
<path fill="none" stroke="#000000" d="M1111.743,-287.8314C1111.4221,-280.131 1111.0406,-270.9743 1110.684,-262.4166"/>
<polygon fill="#000000" stroke="#000000" points="1114.1806,-262.2589 1110.2672,-252.4133 1107.1867,-262.5503 1114.1806,-262.2589"/>
</g>
<!-- [root] aws_route_table_association.main&#45;public&#45;1&#45;a -->
<g id="node5" class="node">
<title>[root] aws_route_table_association.main&#45;public&#45;1&#45;a</title>
<polygon fill="none" stroke="#000000" points="1162.5,-396 900.5,-396 900.5,-360 1162.5,-360 1162.5,-396"/>
<text text-anchor="middle" x="1031.5" y="-374.3" font-family="Times,serif" font-size="14.00" fill="#000000">aws_route_table_association.main&#45;public&#45;1&#45;a</text>
</g>
<!-- [root] aws_route_table_association.main&#45;public&#45;1&#45;a&#45;&gt;[root] aws_route_table.main&#45;public -->
<g id="edge9" class="edge">
<title>[root] aws_route_table_association.main&#45;public&#45;1&#45;a&#45;&gt;[root] aws_route_table.main&#45;public</title>
<path fill="none" stroke="#000000" d="M1051.9397,-359.8314C1061.8205,-351.0485 1073.8324,-340.3712 1084.545,-330.8489"/>
<polygon fill="#000000" stroke="#000000" points="1086.918,-333.4224 1092.0668,-324.1628 1082.2674,-328.1906 1086.918,-333.4224"/>
</g>
<!-- [root] aws_route_table_association.main&#45;public&#45;1&#45;a&#45;&gt;[root] aws_subnet.main&#45;public&#45;1 -->
<g id="edge10" class="edge">
<title>[root] aws_route_table_association.main&#45;public&#45;1&#45;a&#45;&gt;[root] aws_subnet.main&#45;public&#45;1</title>
<path fill="none" stroke="#000000" d="M1016.4286,-359.7623C995.5949,-334.5518 957.8773,-288.9103 934.0647,-260.0952"/>
<polygon fill="#000000" stroke="#000000" points="936.5173,-257.5685 927.4491,-252.0896 931.1213,-262.0277 936.5173,-257.5685"/>
</g>
<!-- [root] aws_route_table_association.main&#45;public&#45;2&#45;a -->
<g id="node6" class="node">
<title>[root] aws_route_table_association.main&#45;public&#45;2&#45;a</title>
<polygon fill="none" stroke="#000000" points="1442.5,-396 1180.5,-396 1180.5,-360 1442.5,-360 1442.5,-396"/>
<text text-anchor="middle" x="1311.5" y="-374.3" font-family="Times,serif" font-size="14.00" fill="#000000">aws_route_table_association.main&#45;public&#45;2&#45;a</text>
</g>
<!-- [root] aws_route_table_association.main&#45;public&#45;2&#45;a&#45;&gt;[root] aws_route_table.main&#45;public -->
<g id="edge11" class="edge">
<title>[root] aws_route_table_association.main&#45;public&#45;2&#45;a&#45;&gt;[root] aws_route_table.main&#45;public</title>
<path fill="none" stroke="#000000" d="M1261.5408,-359.9243C1234.3363,-350.0815 1200.4983,-337.8386 1171.9438,-327.5073"/>
<polygon fill="#000000" stroke="#000000" points="1173.0741,-324.1943 1162.4798,-324.0831 1170.6924,-330.7767 1173.0741,-324.1943"/>
</g>
<!-- [root] aws_subnet.main&#45;public&#45;2 -->
<g id="node14" class="node">
<title>[root] aws_subnet.main&#45;public&#45;2</title>
<polygon fill="none" stroke="#000000" points="1389,-324 1230,-324 1230,-288 1389,-288 1389,-324"/>
<text text-anchor="middle" x="1309.5" y="-302.3" font-family="Times,serif" font-size="14.00" fill="#000000">aws_subnet.main&#45;public&#45;2</text>
</g>
<!-- [root] aws_route_table_association.main&#45;public&#45;2&#45;a&#45;&gt;[root] aws_subnet.main&#45;public&#45;2 -->
<g id="edge12" class="edge">
<title>[root] aws_route_table_association.main&#45;public&#45;2&#45;a&#45;&gt;[root] aws_subnet.main&#45;public&#45;2</title>
<path fill="none" stroke="#000000" d="M1310.9953,-359.8314C1310.7814,-352.131 1310.5271,-342.9743 1310.2894,-334.4166"/>
<polygon fill="#000000" stroke="#000000" points="1313.7879,-334.3122 1310.0115,-324.4133 1306.7906,-334.5066 1313.7879,-334.3122"/>
</g>
<!-- [root] aws_route_table_association.main&#45;public&#45;3&#45;a -->
<g id="node7" class="node">
<title>[root] aws_route_table_association.main&#45;public&#45;3&#45;a</title>
<polygon fill="none" stroke="#000000" points="1722.5,-396 1460.5,-396 1460.5,-360 1722.5,-360 1722.5,-396"/>
<text text-anchor="middle" x="1591.5" y="-374.3" font-family="Times,serif" font-size="14.00" fill="#000000">aws_route_table_association.main&#45;public&#45;3&#45;a</text>
</g>
<!-- [root] aws_route_table_association.main&#45;public&#45;3&#45;a&#45;&gt;[root] aws_route_table.main&#45;public -->
<g id="edge13" class="edge">
<title>[root] aws_route_table_association.main&#45;public&#45;3&#45;a&#45;&gt;[root] aws_route_table.main&#45;public</title>
<path fill="none" stroke="#000000" d="M1463.8392,-359.9698C1392.4969,-349.7427 1302.0026,-336.5204 1221.5,-324 1217.3957,-323.3617 1213.2058,-322.7025 1208.9741,-322.0306"/>
<polygon fill="#000000" stroke="#000000" points="1209.472,-318.5659 1199.0449,-320.4437 1208.3672,-325.4782 1209.472,-318.5659"/>
</g>
<!-- [root] aws_subnet.main&#45;public&#45;3 -->
<g id="node15" class="node">
<title>[root] aws_subnet.main&#45;public&#45;3</title>
<polygon fill="none" stroke="#000000" points="1624,-324 1465,-324 1465,-288 1624,-288 1624,-324"/>
<text text-anchor="middle" x="1544.5" y="-302.3" font-family="Times,serif" font-size="14.00" fill="#000000">aws_subnet.main&#45;public&#45;3</text>
</g>
<!-- [root] aws_route_table_association.main&#45;public&#45;3&#45;a&#45;&gt;[root] aws_subnet.main&#45;public&#45;3 -->
<g id="edge14" class="edge">
<title>[root] aws_route_table_association.main&#45;public&#45;3&#45;a&#45;&gt;[root] aws_subnet.main&#45;public&#45;3</title>
<path fill="none" stroke="#000000" d="M1579.6399,-359.8314C1574.3371,-351.7079 1567.9763,-341.9637 1562.1327,-333.0118"/>
<polygon fill="#000000" stroke="#000000" points="1564.9169,-330.8739 1556.5198,-324.4133 1559.0552,-334.7003 1564.9169,-330.8739"/>
</g>
<!-- [root] aws_security_group.allow&#45;http -->
<g id="node8" class="node">
<title>[root] aws_security_group.allow&#45;http</title>
<polygon fill="none" stroke="#000000" points="758.5,-396 576.5,-396 576.5,-360 758.5,-360 758.5,-396"/>
<text text-anchor="middle" x="667.5" y="-374.3" font-family="Times,serif" font-size="14.00" fill="#000000">aws_security_group.allow&#45;http</text>
</g>
<!-- [root] aws_security_group.allow&#45;http&#45;&gt;[root] aws_vpc.main -->
<g id="edge15" class="edge">
<title>[root] aws_security_group.allow&#45;http&#45;&gt;[root] aws_vpc.main</title>
<path fill="none" stroke="#000000" d="M722.6133,-359.9815C740.324,-351.643 758.4564,-339.9529 770.5,-324 799.6987,-285.3234 800.6877,-262.0193 785.5,-216 782.2092,-206.0288 776.2884,-196.3944 769.9936,-188.0924"/>
<polygon fill="#000000" stroke="#000000" points="772.672,-185.8384 763.6576,-180.2714 767.2328,-190.2448 772.672,-185.8384"/>
</g>
<!-- [root] aws_security_group.allow&#45;ssh&#45;&gt;[root] aws_vpc.main -->
<g id="edge16" class="edge">
<title>[root] aws_security_group.allow&#45;ssh&#45;&gt;[root] aws_vpc.main</title>
<path fill="none" stroke="#000000" d="M701.3882,-215.8314C708.253,-207.454 716.5301,-197.3531 724.0511,-188.1749"/>
<polygon fill="#000000" stroke="#000000" points="726.7803,-190.3665 730.4114,-180.4133 721.3659,-185.9297 726.7803,-190.3665"/>
</g>
<!-- [root] aws_subnet.main&#45;private&#45;1 -->
<g id="node10" class="node">
<title>[root] aws_subnet.main&#45;private&#45;1</title>
<polygon fill="none" stroke="#000000" points="161,-396 0,-396 0,-360 161,-360 161,-396"/>
<text text-anchor="middle" x="80.5" y="-374.3" font-family="Times,serif" font-size="14.00" fill="#000000">aws_subnet.main&#45;private&#45;1</text>
</g>
<!-- [root] aws_subnet.main&#45;private&#45;1&#45;&gt;[root] aws_vpc.main -->
<g id="edge17" class="edge">
<title>[root] aws_subnet.main&#45;private&#45;1&#45;&gt;[root] aws_vpc.main</title>
<path fill="none" stroke="#000000" d="M129.8789,-359.9842C190.8165,-337.1968 297.0924,-295.6372 384.5,-252 412.6655,-237.9387 415.9894,-226.9607 445.5,-216 526.6302,-185.867 626.5335,-172.1962 688.1155,-166.2518"/>
<polygon fill="#000000" stroke="#000000" points="688.774,-169.7058 698.4075,-165.296 688.1267,-162.7358 688.774,-169.7058"/>
</g>
<!-- [root] aws_subnet.main&#45;private&#45;2 -->
<g id="node11" class="node">
<title>[root] aws_subnet.main&#45;private&#45;2</title>
<polygon fill="none" stroke="#000000" points="340,-396 179,-396 179,-360 340,-360 340,-396"/>
<text text-anchor="middle" x="259.5" y="-374.3" font-family="Times,serif" font-size="14.00" fill="#000000">aws_subnet.main&#45;private&#45;2</text>
</g>
<!-- [root] aws_subnet.main&#45;private&#45;2&#45;&gt;[root] aws_vpc.main -->
<g id="edge18" class="edge">
<title>[root] aws_subnet.main&#45;private&#45;2&#45;&gt;[root] aws_vpc.main</title>
<path fill="none" stroke="#000000" d="M340.2733,-363.0211C367.1132,-354.9472 395.6848,-342.6467 417.5,-324 458.7572,-288.735 430.9964,-248.4533 474.5,-216 507.6005,-191.3073 618.7447,-175.4043 687.9923,-167.6363"/>
<polygon fill="#000000" stroke="#000000" points="688.7507,-171.0742 698.3093,-166.5043 687.9871,-164.116 688.7507,-171.0742"/>
</g>
<!-- [root] aws_subnet.main&#45;private&#45;3 -->
<g id="node12" class="node">
<title>[root] aws_subnet.main&#45;private&#45;3</title>
<polygon fill="none" stroke="#000000" points="558,-396 397,-396 397,-360 558,-360 558,-396"/>
<text text-anchor="middle" x="477.5" y="-374.3" font-family="Times,serif" font-size="14.00" fill="#000000">aws_subnet.main&#45;private&#45;3</text>
</g>
<!-- [root] aws_subnet.main&#45;private&#45;3&#45;&gt;[root] aws_vpc.main -->
<g id="edge19" class="edge">
<title>[root] aws_subnet.main&#45;private&#45;3&#45;&gt;[root] aws_vpc.main</title>
<path fill="none" stroke="#000000" d="M473.8364,-359.9529C468.2505,-326.8195 461.7899,-256.0243 498.5,-216 523.6006,-188.6333 623.4186,-173.8528 688.2232,-166.9759"/>
<polygon fill="#000000" stroke="#000000" points="688.7169,-170.4437 698.3065,-165.9393 688.001,-163.4803 688.7169,-170.4437"/>
</g>
<!-- [root] aws_subnet.main&#45;public&#45;1&#45;&gt;[root] aws_vpc.main -->
<g id="edge20" class="edge">
<title>[root] aws_subnet.main&#45;public&#45;1&#45;&gt;[root] aws_vpc.main</title>
<path fill="none" stroke="#000000" d="M870.3588,-215.8314C848.0236,-206.2018 820.4064,-194.295 796.829,-184.1299"/>
<polygon fill="#000000" stroke="#000000" points="797.9067,-180.7831 787.3381,-180.038 795.1353,-187.2112 797.9067,-180.7831"/>
</g>
<!-- [root] aws_subnet.main&#45;public&#45;2&#45;&gt;[root] aws_vpc.main -->
<g id="edge21" class="edge">
<title>[root] aws_subnet.main&#45;public&#45;2&#45;&gt;[root] aws_vpc.main</title>
<path fill="none" stroke="#000000" d="M1295.8416,-287.8853C1278.7083,-266.6659 1247.2096,-232.3391 1211.5,-216 1139.9339,-183.2546 910.8324,-169.1743 802.8447,-164.2398"/>
<polygon fill="#000000" stroke="#000000" points="802.9279,-160.7402 792.7817,-163.7905 802.6156,-167.7332 802.9279,-160.7402"/>
</g>
<!-- [root] aws_subnet.main&#45;public&#45;3&#45;&gt;[root] aws_vpc.main -->
<g id="edge22" class="edge">
<title>[root] aws_subnet.main&#45;public&#45;3&#45;&gt;[root] aws_vpc.main</title>
<path fill="none" stroke="#000000" d="M1495.8231,-287.9629C1438.1081,-267.3143 1338.6197,-234.0275 1250.5,-216 1090.2188,-183.2098 896.9941,-169.5844 802.777,-164.5682"/>
<polygon fill="#000000" stroke="#000000" points="802.7736,-161.0634 792.6055,-164.0398 802.4104,-168.0539 802.7736,-161.0634"/>
</g>
<!-- [root] aws_vpc.main&#45;&gt;[root] provider.aws -->
<g id="edge23" class="edge">
<title>[root] aws_vpc.main&#45;&gt;[root] provider.aws</title>
<path fill="none" stroke="#000000" d="M707.901,-143.8314C684.2603,-132.4077 653.9874,-117.7792 630.9678,-106.6556"/>
<polygon fill="#000000" stroke="#000000" points="632.4292,-103.4746 621.9025,-102.275 629.3835,-109.7773 632.4292,-103.4746"/>
</g>
<!-- [root] output.myoutput -->
<g id="node17" class="node">
<title>[root] output.myoutput</title>
<polygon fill="none" stroke="#000000" points="876.5,-396 776.5,-396 776.5,-360 882.5,-360 882.5,-390 876.5,-396"/>
<polyline fill="none" stroke="#000000" points="876.5,-396 876.5,-390 "/>
<polyline fill="none" stroke="#000000" points="882.5,-390 876.5,-390 "/>
<text text-anchor="middle" x="829.5" y="-374.3" font-family="Times,serif" font-size="14.00" fill="#000000">output.myoutput</text>
</g>
<!-- [root] output.myoutput&#45;&gt;[root] aws_instance.aws&#45;www1&#45;filescopy&#45;online -->
<g id="edge33" class="edge">
<title>[root] output.myoutput&#45;&gt;[root] aws_instance.aws&#45;www1&#45;filescopy&#45;online</title>
<path fill="none" stroke="#000000" d="M782.0597,-359.8314C756.5805,-350.0734 724.9956,-337.977 698.2243,-327.7242"/>
<polygon fill="#000000" stroke="#000000" points="699.1896,-324.346 688.5992,-324.038 696.686,-330.883 699.1896,-324.346"/>
</g>
<!-- [root] var.AWS_REGION -->
<g id="node20" class="node">
<title>[root] var.AWS_REGION</title>
<polygon fill="none" stroke="#000000" points="651.5,-36 535.5,-36 535.5,0 657.5,0 657.5,-30 651.5,-36"/>
<polyline fill="none" stroke="#000000" points="651.5,-36 651.5,-30 "/>
<polyline fill="none" stroke="#000000" points="657.5,-30 651.5,-30 "/>
<text text-anchor="middle" x="596.5" y="-14.3" font-family="Times,serif" font-size="14.00" fill="#000000">var.AWS_REGION</text>
</g>
<!-- [root] provider.aws&#45;&gt;[root] var.AWS_REGION -->
<g id="edge42" class="edge">
<title>[root] provider.aws&#45;&gt;[root] var.AWS_REGION</title>
<path fill="none" stroke="#000000" d="M596.5,-71.8314C596.5,-64.131 596.5,-54.9743 596.5,-46.4166"/>
<polygon fill="#000000" stroke="#000000" points="600.0001,-46.4132 596.5,-36.4133 593.0001,-46.4133 600.0001,-46.4132"/>
</g>
<!-- [root] var.PATH_TO_PRIVATE_KEY -->
<g id="node21" class="node">
<title>[root] var.PATH_TO_PRIVATE_KEY</title>
<polygon fill="none" stroke="#000000" points="1926,-396 1741,-396 1741,-360 1932,-360 1932,-390 1926,-396"/>
<polyline fill="none" stroke="#000000" points="1926,-396 1926,-390 "/>
<polyline fill="none" stroke="#000000" points="1932,-390 1926,-390 "/>
<text text-anchor="middle" x="1836.5" y="-374.3" font-family="Times,serif" font-size="14.00" fill="#000000">var.PATH_TO_PRIVATE_KEY</text>
</g>
<!-- [root] meta.count&#45;boundary (EachMode fixup) -->
<g id="node23" class="node">
<title>[root] meta.count&#45;boundary (EachMode fixup)</title>
<ellipse fill="none" stroke="#000000" cx="829.5" cy="-450" rx="176.2688" ry="18"/>
<text text-anchor="middle" x="829.5" y="-446.3" font-family="Times,serif" font-size="14.00" fill="#000000">[root] meta.count&#45;boundary (EachMode fixup)</text>
</g>
<!-- [root] meta.count&#45;boundary (EachMode fixup)&#45;&gt;[root] aws_route_table_association.main&#45;public&#45;1&#45;a -->
<g id="edge24" class="edge">
<title>[root] meta.count&#45;boundary (EachMode fixup)&#45;&gt;[root] aws_route_table_association.main&#45;public&#45;1&#45;a</title>
<path fill="none" stroke="#000000" d="M878.1411,-432.6626C906.1618,-422.675 941.6141,-410.0385 971.3721,-399.4317"/>
<polygon fill="#000000" stroke="#000000" points="972.5727,-402.7195 980.8171,-396.0652 970.2225,-396.1259 972.5727,-402.7195"/>
</g>
<!-- [root] meta.count&#45;boundary (EachMode fixup)&#45;&gt;[root] aws_route_table_association.main&#45;public&#45;2&#45;a -->
<g id="edge25" class="edge">
<title>[root] meta.count&#45;boundary (EachMode fixup)&#45;&gt;[root] aws_route_table_association.main&#45;public&#45;2&#45;a</title>
<path fill="none" stroke="#000000" d="M929.0784,-435.1252C1001.909,-424.246 1101.4044,-409.3836 1180.653,-397.5456"/>
<polygon fill="#000000" stroke="#000000" points="1181.3334,-400.9829 1190.7065,-396.0438 1180.2992,-394.0597 1181.3334,-400.9829"/>
</g>
<!-- [root] meta.count&#45;boundary (EachMode fixup)&#45;&gt;[root] aws_route_table_association.main&#45;public&#45;3&#45;a -->
<g id="edge26" class="edge">
<title>[root] meta.count&#45;boundary (EachMode fixup)&#45;&gt;[root] aws_route_table_association.main&#45;public&#45;3&#45;a</title>
<path fill="none" stroke="#000000" d="M971.7081,-439.3328C1095.4199,-429.6607 1279.7821,-414.3058 1450.1954,-396.1176"/>
<polygon fill="#000000" stroke="#000000" points="1450.7926,-399.5737 1460.3623,-395.0273 1450.0461,-392.6136 1450.7926,-399.5737"/>
</g>
<!-- [root] meta.count&#45;boundary (EachMode fixup)&#45;&gt;[root] aws_security_group.allow&#45;http -->
<g id="edge27" class="edge">
<title>[root] meta.count&#45;boundary (EachMode fixup)&#45;&gt;[root] aws_security_group.allow&#45;http</title>
<path fill="none" stroke="#000000" d="M789.8703,-432.3868C768.0533,-422.6903 740.7626,-410.5612 717.493,-400.2191"/>
<polygon fill="#000000" stroke="#000000" points="718.6883,-396.9203 708.1287,-396.0572 715.8453,-403.317 718.6883,-396.9203"/>
</g>
<!-- [root] meta.count&#45;boundary (EachMode fixup)&#45;&gt;[root] aws_subnet.main&#45;private&#45;1 -->
<g id="edge28" class="edge">
<title>[root] meta.count&#45;boundary (EachMode fixup)&#45;&gt;[root] aws_subnet.main&#45;private&#45;1</title>
<path fill="none" stroke="#000000" d="M703.6466,-437.3909C683.8597,-435.5135 663.629,-433.6553 644.5,-432 436.8674,-414.0328 380.9523,-424.6947 171.5236,-396.1981"/>
<polygon fill="#000000" stroke="#000000" points="171.817,-392.7056 161.4335,-394.8112 170.8638,-399.6404 171.817,-392.7056"/>
</g>
<!-- [root] meta.count&#45;boundary (EachMode fixup)&#45;&gt;[root] aws_subnet.main&#45;private&#45;2 -->
<g id="edge29" class="edge">
<title>[root] meta.count&#45;boundary (EachMode fixup)&#45;&gt;[root] aws_subnet.main&#45;private&#45;2</title>
<path fill="none" stroke="#000000" d="M713.564,-436.4183C624.3657,-425.8279 498.0646,-410.5268 387.5,-396 375.3861,-394.4084 362.6353,-392.6796 350.0664,-390.944"/>
<polygon fill="#000000" stroke="#000000" points="350.4271,-387.4606 340.041,-389.5531 349.4651,-394.3942 350.4271,-387.4606"/>
</g>
<!-- [root] meta.count&#45;boundary (EachMode fixup)&#45;&gt;[root] aws_subnet.main&#45;private&#45;3 -->
<g id="edge30" class="edge">
<title>[root] meta.count&#45;boundary (EachMode fixup)&#45;&gt;[root] aws_subnet.main&#45;private&#45;3</title>
<path fill="none" stroke="#000000" d="M750.5043,-433.8418C696.3899,-422.7729 624.4828,-408.0647 568.0512,-396.5218"/>
<polygon fill="#000000" stroke="#000000" points="568.5596,-393.0534 558.0611,-394.4784 567.1568,-399.9114 568.5596,-393.0534"/>
</g>
<!-- [root] meta.count&#45;boundary (EachMode fixup)&#45;&gt;[root] output.myoutput -->
<g id="edge31" class="edge">
<title>[root] meta.count&#45;boundary (EachMode fixup)&#45;&gt;[root] output.myoutput</title>
<path fill="none" stroke="#000000" d="M829.5,-431.8314C829.5,-424.131 829.5,-414.9743 829.5,-406.4166"/>
<polygon fill="#000000" stroke="#000000" points="833.0001,-406.4132 829.5,-396.4133 826.0001,-406.4133 833.0001,-406.4132"/>
</g>
<!-- [root] meta.count&#45;boundary (EachMode fixup)&#45;&gt;[root] var.PATH_TO_PRIVATE_KEY -->
<g id="edge32" class="edge">
<title>[root] meta.count&#45;boundary (EachMode fixup)&#45;&gt;[root] var.PATH_TO_PRIVATE_KEY</title>
<path fill="none" stroke="#000000" d="M999.9734,-445.3795C1179.3996,-439.2294 1470.1709,-425.6167 1730.9503,-395.9819"/>
<polygon fill="#000000" stroke="#000000" points="1731.4584,-399.4467 1740.9948,-394.8308 1730.6613,-392.4922 1731.4584,-399.4467"/>
</g>
<!-- [root] provider.aws (close) -->
<g id="node24" class="node">
<title>[root] provider.aws (close)</title>
<ellipse fill="none" stroke="#000000" cx="532.5" cy="-450" rx="102.8821" ry="18"/>
<text text-anchor="middle" x="532.5" y="-446.3" font-family="Times,serif" font-size="14.00" fill="#000000">[root] provider.aws (close)</text>
</g>
<!-- [root] provider.aws (close)&#45;&gt;[root] aws_instance.aws&#45;www1&#45;filescopy&#45;online -->
<g id="edge34" class="edge">
<title>[root] provider.aws (close)&#45;&gt;[root] aws_instance.aws&#45;www1&#45;filescopy&#45;online</title>
<path fill="none" stroke="#000000" d="M469.1038,-435.6933C417.8517,-421.1553 358.5996,-395.6904 387.5,-360 403.9257,-339.7151 457.458,-326.7327 511.1686,-318.5969"/>
<polygon fill="#000000" stroke="#000000" points="511.8014,-322.0417 521.1907,-317.1335 510.7899,-315.1151 511.8014,-322.0417"/>
</g>
<!-- [root] provider.aws (close)&#45;&gt;[root] aws_route_table_association.main&#45;public&#45;1&#45;a -->
<g id="edge35" class="edge">
<title>[root] provider.aws (close)&#45;&gt;[root] aws_route_table_association.main&#45;public&#45;1&#45;a</title>
<path fill="none" stroke="#000000" d="M607.7739,-437.6831C620.0421,-435.7388 632.6198,-433.7833 644.5,-432 725.7127,-419.8093 816.656,-407.073 889.9671,-397.033"/>
<polygon fill="#000000" stroke="#000000" points="890.7583,-400.4575 900.1917,-395.6346 889.8096,-393.522 890.7583,-400.4575"/>
</g>
<!-- [root] provider.aws (close)&#45;&gt;[root] aws_route_table_association.main&#45;public&#45;2&#45;a -->
<g id="edge36" class="edge">
<title>[root] provider.aws (close)&#45;&gt;[root] aws_route_table_association.main&#45;public&#45;2&#45;a</title>
<path fill="none" stroke="#000000" d="M605.567,-437.2732C618.5088,-435.3003 631.8795,-433.4422 644.5,-432 874.4473,-405.7235 936.1222,-418.6012 1170.1766,-396.0926"/>
<polygon fill="#000000" stroke="#000000" points="1170.756,-399.5529 1180.3699,-395.1006 1170.0778,-392.5858 1170.756,-399.5529"/>
</g>
<!-- [root] provider.aws (close)&#45;&gt;[root] aws_route_table_association.main&#45;public&#45;3&#45;a -->
<g id="edge37" class="edge">
<title>[root] provider.aws (close)&#45;&gt;[root] aws_route_table_association.main&#45;public&#45;3&#45;a</title>
<path fill="none" stroke="#000000" d="M604.6375,-437.1587C617.862,-435.1603 631.5695,-433.3231 644.5,-432 998.3451,-395.7943 1092.0778,-426.3405 1450.2467,-396.0616"/>
<polygon fill="#000000" stroke="#000000" points="1450.7133,-399.5346 1460.3786,-395.1949 1450.1166,-392.56 1450.7133,-399.5346"/>
</g>
<!-- [root] provider.aws (close)&#45;&gt;[root] aws_security_group.allow&#45;http -->
<g id="edge38" class="edge">
<title>[root] provider.aws (close)&#45;&gt;[root] aws_security_group.allow&#45;http</title>
<path fill="none" stroke="#000000" d="M564.8359,-432.7542C582.7484,-423.2009 605.2446,-411.2029 624.6097,-400.8748"/>
<polygon fill="#000000" stroke="#000000" points="626.3676,-403.904 633.5441,-396.1098 623.0735,-397.7275 626.3676,-403.904"/>
</g>
<!-- [root] provider.aws (close)&#45;&gt;[root] aws_subnet.main&#45;private&#45;1 -->
<g id="edge39" class="edge">
<title>[root] provider.aws (close)&#45;&gt;[root] aws_subnet.main&#45;private&#45;1</title>
<path fill="none" stroke="#000000" d="M450.4887,-439.0373C379.1627,-429.2184 272.7971,-413.894 171.5669,-396.3244"/>
<polygon fill="#000000" stroke="#000000" points="171.9256,-392.8342 161.4726,-394.5619 170.7215,-399.7299 171.9256,-392.8342"/>
</g>
<!-- [root] provider.aws (close)&#45;&gt;[root] aws_subnet.main&#45;private&#45;2 -->
<g id="edge40" class="edge">
<title>[root] provider.aws (close)&#45;&gt;[root] aws_subnet.main&#45;private&#45;2</title>
<path fill="none" stroke="#000000" d="M475.6026,-434.9941C435.6508,-424.4574 381.7145,-410.2324 337.7215,-398.6298"/>
<polygon fill="#000000" stroke="#000000" points="338.4828,-395.211 327.9209,-396.0451 336.6976,-401.9796 338.4828,-395.211"/>
</g>
<!-- [root] provider.aws (close)&#45;&gt;[root] aws_subnet.main&#45;private&#45;3 -->
<g id="edge41" class="edge">
<title>[root] provider.aws (close)&#45;&gt;[root] aws_subnet.main&#45;private&#45;3</title>
<path fill="none" stroke="#000000" d="M518.6212,-431.8314C512.2864,-423.5386 504.6616,-413.557 497.7074,-404.4533"/>
<polygon fill="#000000" stroke="#000000" points="500.4175,-402.2353 491.5657,-396.4133 494.8548,-406.4847 500.4175,-402.2353"/>
</g>
<!-- [root] root -->
<g id="node25" class="node">
<title>[root] root</title>
<ellipse fill="none" stroke="#000000" cx="680.5" cy="-522" rx="47.3916" ry="18"/>
<text text-anchor="middle" x="680.5" y="-518.3" font-family="Times,serif" font-size="14.00" fill="#000000">[root] root</text>
</g>
<!-- [root] root&#45;&gt;[root] meta.count&#45;boundary (EachMode fixup) -->
<g id="edge43" class="edge">
<title>[root] root&#45;&gt;[root] meta.count&#45;boundary (EachMode fixup)</title>
<path fill="none" stroke="#000000" d="M709.9376,-507.7751C730.9767,-497.6086 759.6959,-483.7308 783.714,-472.1248"/>
<polygon fill="#000000" stroke="#000000" points="785.5203,-475.1392 793.0013,-467.6369 782.4746,-468.8365 785.5203,-475.1392"/>
</g>
<!-- [root] root&#45;&gt;[root] provider.aws (close) -->
<g id="edge44" class="edge">
<title>[root] root&#45;&gt;[root] provider.aws (close)</title>
<path fill="none" stroke="#000000" d="M651.26,-507.7751C629.9903,-497.4277 600.818,-483.2358 576.7097,-471.5074"/>
<polygon fill="#000000" stroke="#000000" points="577.9305,-468.2092 567.407,-466.9818 574.8682,-474.5038 577.9305,-468.2092"/>
</g>
</g>
</svg>
